# xmcd CD database file
#
# Track frame offsets:
#	150
#	12894
#	31581
#	47217
#	63988
#	78804
#	101128
#	118733
#	134958
#	149740
#	166930
#	190010
#	206564
#	223212
#
# Disc length: 3210 seconds
#
# Revision: 3
# Processed by: cddbd v1.5.2PL0 Copyright (c) Steve Scherf et al.
# Submitted via: CDex 1.70beta2
#
DISCID=cf0c880e
DTITLE=Varios - Na Balada 2010 Cd1
DYEAR=2010
DGENRE=NA BALADA
TTITLE0=Stereo Love – Edward Maya and Vika Jigulina
TTITLE1=Follow You – Desaparecidos
TTITLE2=Can’T Get Enough – Soulsearcher
TTITLE3=He’S All I Want – Moony
TTITLE4=Moving On Up – Candy
TTITLE5=Bad Romance – D’Mixmaster
TTITLE6=Watching You – R.I.O. Feat. Liz Kay
TTITLE7=Watch Out – Alex Gaudino Feat Shena
TTITLE8=Rocking – Anthony Louis and Paolo Pellegrino Feat. Sara Luh
TTITLE9=Let The Party Start – Dj Tom Hopkins Feat. Samara
TTITLE10=Follow Me – Aly-Us
TTITLE11=Dreaming – Ruff Driverz Presents Arrola
TTITLE12=If You Tolerate This – Eric Chase
TTITLE13=Welcome To The Party – Techsamba
EXTD=YEAR: 2010
EXTT0=
EXTT1=
EXTT2=
EXTT3=
EXTT4=
EXTT5=
EXTT6=
EXTT7=
EXTT8=
EXTT9=
EXTT10=
EXTT11=
EXTT12=
EXTT13=
PLAYORDER=
